<svg xmlns="http://www.w3.org/2000/svg" width="60" height="60" fill="none"><path fill="#000" d="M22.535 36.352c0-.396.11-.704.33-.924.235-.235.543-.352.925-.352.396 0 .71.117.945.352.235.22.352.528.352.924 0 .381-.117.69-.352.924-.234.234-.55.352-.945.352-.382 0-.69-.118-.924-.352-.22-.235-.33-.543-.33-.924Zm6.145 0c0-.396.11-.704.33-.924.235-.235.543-.352.924-.352.396 0 .711.117.946.352.235.22.352.528.352.924 0 .381-.117.69-.352.924-.235.234-.55.352-.946.352-.381 0-.69-.118-.924-.352-.22-.235-.33-.543-.33-.924Zm6.145 0c0-.396.11-.704.33-.924.234-.235.542-.352.924-.352.396 0 .71.117.946.352.234.22.352.528.352.924 0 .381-.118.69-.352.924-.235.234-.55.352-.946.352-.382 0-.69-.118-.924-.352-.22-.235-.33-.543-.33-.924Z"/></svg>